<?xml version="1.0" encoding="UTF-8"?>
<svg version="1.1" xmlns="http://www.w3.org/2000/svg" width="1024" height="1024">
<path d="M0 0 C337.92 0 675.84 0 1024 0 C1024 337.92 1024 675.84 1024 1024 C686.08 1024 348.16 1024 0 1024 C0 686.08 0 348.16 0 0 Z " fill="#FAFAFA" transform="translate(0,0)"/>
<path d="M0 0 C25.3229262 -0.04527735 50.64581924 -0.08206483 75.96877575 -0.10362434 C87.72862899 -0.11390419 99.48845516 -0.12790103 111.24829102 -0.15087891 C121.50707736 -0.17091416 131.76584407 -0.18374031 142.02464944 -0.18817699 C147.4484817 -0.19076733 152.87225786 -0.19678583 158.29607201 -0.21146011 C163.41861999 -0.22520482 168.54108965 -0.22918916 173.66365433 -0.22621536 C175.52701686 -0.22675808 177.39038248 -0.23063362 179.25372887 -0.23841095 C222.25642018 -0.40883825 264.20945604 8.2646589 296.0625 39.03125 C300.11976559 43.06776231 303.70327234 47.31963504 307 52 C307.98033203 53.39025391 307.98033203 53.39025391 308.98046875 54.80859375 C330.01334342 86.74438991 333.52198375 132.69263039 325.9375 169.625 C325.07267861 173.45385132 324.08605676 177.22827324 323 181 C322.74299316 181.89831543 322.48598633 182.79663086 322.22119141 183.72216797 C317.42625011 199.87897139 310.16005726 214.29837841 299 227 C298.33742188 227.80566406 297.67484375 228.61132812 296.9921875 229.44140625 C281.62671506 247.55678797 260.44122117 258.26763365 238 265 C237.01 265 236.02 265 235 265 C239.19343239 272.66335004 243.8670028 279.77557502 248.953125 286.86157227 C254.22624827 294.23924827 259.23063903 301.78842013 264.21655273 309.36230469 C268.01367652 315.10737562 271.93784834 320.72490586 276.01318359 326.27587891 C279.31202696 330.79891827 282.49759544 335.39978834 285.6875 340 C286.38101562 340.99837891 287.07453125 341.99675781 287.7890625 343.02539062 C292.5767148 349.92575922 297.3283929 356.84999634 302.06079102 363.78833008 C307.05821113 371.10655733 312.12220795 378.37784851 317.18823242 385.64868164 C322.82623206 393.74261 328.42280854 401.86410443 334 410 C335.9574602 412.85476681 337.91599176 415.70879534 339.875 418.5625 C340.31561768 419.20566162 340.75623535 419.84882324 341.21020508 420.51147461 C341.63325928 421.12772705 342.05631348 421.74397949 342.4921875 422.37890625 C343.10658691 423.27440186 343.10658691 423.27440186 343.73339844 424.18798828 C345.06616628 426.09465809 346.44283971 427.96529978 347.8203125 429.83984375 C350 433 350 433 350 435 C340.98457905 435.06996611 331.96925368 435.1230452 322.953619 435.15543652 C318.76585575 435.17099429 314.57828025 435.19204815 310.390625 435.22631836 C306.33813292 435.25926931 302.28581975 435.27692704 298.23320389 435.28463173 C296.69848444 435.29011193 295.16377313 435.30081018 293.62913132 435.31719017 C272.55424401 435.53288288 253.61292287 430.65595114 237.77734375 415.93359375 C231.42443044 409.30396552 226.49851717 401.60862003 221.3984375 394.01171875 C218.16046449 389.20125512 214.79166114 384.4971164 211.375 379.8125 C206.84744345 373.59191947 202.42516454 367.31289234 198.08666992 360.95922852 C194.8290325 356.19245629 191.52344518 351.46227587 188.1875 346.75 C182.62921806 338.89769475 177.10612559 331.02130724 171.59375 323.13671875 C169.16077852 319.6569573 166.72287956 316.18072279 164.28125 312.70703125 C154.11219301 298.2296685 154.11219301 298.2296685 149.5 291.25 C148.58347656 289.87908203 148.58347656 289.87908203 147.6484375 288.48046875 C146.59255699 286.89164382 145.55427626 285.29089405 144.5390625 283.67578125 C140.79594388 278.08178354 136.33065545 275.24854073 130 273 C116.17483689 270.69580615 102.0104598 271.38917944 88 271 C88 325.12 88 379.24 88 435 C58.96 435 29.92 435 0 435 C-0.09039149 408.36545129 -0.16403517 381.73102731 -0.20724869 355.09636402 C-0.22784927 342.72865611 -0.25592205 330.36105046 -0.30175781 317.9934082 C-0.34170216 307.21025115 -0.367451 296.42716819 -0.37635398 285.6439392 C-0.38155583 279.93748308 -0.39372998 274.23123887 -0.42292023 268.52485085 C-0.45020933 263.14618791 -0.45841779 257.76782281 -0.45243073 252.38909721 C-0.45352494 250.42238366 -0.4613979 248.45565942 -0.4768219 246.48900604 C-0.60737041 228.97397032 1.81078051 214.50426583 14.25 201.1875 C25.11002676 190.85678547 37.27747441 189.70092376 51.62329102 189.71289062 C53.09765498 189.70685798 54.57201551 189.69993161 56.04637146 189.69218445 C59.20997176 189.6773494 62.37350954 189.66855965 65.5371418 189.66447449 C70.55330231 189.65772412 75.56933035 189.63592399 80.58543396 189.61193848 C91.24442477 189.56307013 101.90344381 189.53072603 112.5625 189.5 C124.04871929 189.46683472 135.5348864 189.43064927 147.02102607 189.37586927 C151.99279321 189.35271327 156.96446857 189.3388281 161.93628418 189.33237457 C165.04979722 189.32637319 168.16323732 189.31222317 171.27671242 189.29603004 C172.70397224 189.29022751 174.13125016 189.28766622 175.55852127 189.28886986 C195.78154949 189.30104603 216.74252783 187.20335219 232.21875 172.86328125 C242.46212189 162.14817513 244.1773615 146.81890185 244.1875 132.625 C244.19974609 131.73039063 244.21199219 130.83578125 244.22460938 129.9140625 C244.2517081 117.48477849 240.70060523 104.95954853 232.0078125 95.65234375 C207.46603985 75.45551529 172.75815629 79.67654677 143.01823854 79.59528303 C137.97610536 79.5794661 132.93402917 79.55273701 127.89193726 79.5272522 C118.37996287 79.48078841 108.86797736 79.4438894 99.35594881 79.41057932 C86.4769426 79.3649118 73.59800765 79.30415938 60.7190609 79.24433136 C40.47940996 79.15070082 20.23973712 79.07695718 0 79 C0 52.93 0 26.86 0 0 Z " fill="#A622B1" transform="translate(344,285)"/>
<path d="M0 0 C25.3229262 -0.04527735 50.64581924 -0.08206483 75.96877575 -0.10362434 C87.72862899 -0.11390419 99.48845516 -0.12790103 111.24829102 -0.15087891 C121.50707736 -0.17091416 131.76584407 -0.18374031 142.02464944 -0.18817699 C147.4484817 -0.19076733 152.87225786 -0.19678583 158.29607201 -0.21146011 C163.41861999 -0.22520482 168.54108965 -0.22918916 173.66365433 -0.22621536 C175.52701686 -0.22675808 177.39038248 -0.23063362 179.25372887 -0.23841095 C222.25642018 -0.40883825 264.20945604 8.2646589 296.0625 39.03125 C300.11976559 43.06776231 303.70327234 47.31963504 307 52 C307.98033203 53.39025391 307.98033203 53.39025391 308.98046875 54.80859375 C326.53447352 81.46215999 328.26450269 110.04097701 328 141 C325.12543719 141.64783124 322.25038241 142.29332518 319.375 142.9375 C318.16263672 143.21110352 318.16263672 143.21110352 316.92578125 143.49023438 C316.13300781 143.66748047 315.34023438 143.84472656 314.5234375 144.02734375 C313.80075684 144.18968506 313.07807617 144.35202637 312.33349609 144.51928711 C296.58474448 147.76361562 279.00229598 147.2931725 263.25 144.25 C262.43716553 144.09313721 261.62433105 143.93627441 260.78686523 143.7746582 C255.17938751 142.55156049 250.15697894 140.49728926 245 138 C244.95101562 136.94941406 244.90203125 135.89882813 244.8515625 134.81640625 C244.12494426 120.54269716 242.28885055 106.66005203 232.0078125 95.65234375 C207.46603985 75.45551529 172.75815629 79.67654677 143.01823854 79.59528303 C137.97610536 79.5794661 132.93402917 79.55273701 127.89193726 79.5272522 C118.37996287 79.48078841 108.86797736 79.4438894 99.35594881 79.41057932 C86.4769426 79.3649118 73.59800765 79.30415938 60.7190609 79.24433136 C40.47940996 79.15070082 20.23973712 79.07695718 0 79 C0 52.93 0 26.86 0 0 Z " fill="#EF6392" transform="translate(344,285)"/>
<path d="M0 0 C0.77780319 -0.00335861 1.55560638 -0.00671722 2.35697937 -0.01017761 C4.91744601 -0.01964586 7.47784705 -0.02162816 10.03833008 -0.02270508 C11.82001268 -0.02591879 13.60169502 -0.02928295 15.38337708 -0.03279114 C19.11138522 -0.03877081 22.83937021 -0.04063206 26.56738281 -0.04003906 C31.35266435 -0.03993711 36.13779862 -0.0536288 40.92304516 -0.07081127 C44.59895008 -0.08190385 48.27481896 -0.08395918 51.95073891 -0.08342934 C53.71584903 -0.08461208 55.48096002 -0.08905025 57.2460537 -0.0967617 C59.7071115 -0.10651324 62.16784367 -0.10370372 64.62890625 -0.09765625 C65.36191956 -0.10327576 66.09493286 -0.10889526 66.85015869 -0.11468506 C71.8920404 -0.08305726 71.8920404 -0.08305726 74.12036133 2.14526367 C75.11616211 1.65413086 75.11616211 1.65413086 76.13208008 1.15307617 C79.78524044 -0.07897007 83.13091175 -0.07433029 86.93286133 0.02026367 C87.97216797 0.03379883 87.97216797 0.03379883 89.0324707 0.04760742 C90.72858528 0.07100211 92.42452004 0.10686727 94.12036133 0.14526367 C92.08337388 1.68801607 90.03971341 3.20095257 87.93676758 4.65307617 C82.2328068 8.74569275 79.00496437 12.75275139 76.12036133 19.14526367 C75.46036133 19.14526367 74.80036133 19.14526367 74.12036133 19.14526367 C73.95600586 19.99797852 73.95600586 19.99797852 73.78833008 20.86791992 C73.01806553 24.61904566 72.23338624 27.90037636 70.62036133 31.39526367 C66.16123343 41.24985236 66.7418498 53.36517847 66.49536133 63.95776367 C66.45704378 65.34385217 66.41798493 66.72992039 66.37817383 68.1159668 C66.28499181 71.45887167 66.20164232 74.80204826 66.12036133 78.14526367 C70.41036133 78.14526367 74.70036133 78.14526367 79.12036133 78.14526367 C79.12036133 78.47526367 79.12036133 78.80526367 79.12036133 79.14526367 C68.23036133 79.14526367 57.34036133 79.14526367 46.12036133 79.14526367 C46.02733591 74.4526481 45.94808483 69.76336825 45.90063477 65.07055664 C45.88080865 63.48222886 45.85373912 61.89397108 45.81860352 60.3059082 C45.4010394 40.91373934 48.93005545 24.32441097 62.58129883 9.72729492 C63.34313477 8.94418945 63.34313477 8.94418945 64.12036133 8.14526367 C63.19223633 8.78463867 62.26411133 9.42401367 61.30786133 10.08276367 C58.12036133 12.14526367 58.12036133 12.14526367 55.12036133 13.14526367 C54.04849585 15.42451928 54.04849585 15.42451928 53.12036133 18.14526367 C52.15288318 20.02632146 51.1729202 21.90099221 50.18286133 23.77026367 C44.76675946 34.49678738 42.96095771 45.16834862 42.98754883 57.07495117 C42.98611374 58.49869553 42.98611374 58.49869553 42.98464966 59.95120239 C42.98397112 61.9532274 42.98580258 63.95525465 42.98999023 65.95727539 C42.99533116 69.00306203 42.99004025 72.04870041 42.98364258 75.09448242 C42.98430365 77.04630566 42.98558541 78.99812881 42.98754883 80.94995117 C42.98451248 82.30345169 42.98451248 82.30345169 42.98141479 83.68429565 C43.00061209 88.92761038 43.36157647 93.95583831 44.12036133 99.14526367 C44.45036133 99.14526367 44.78036133 99.14526367 45.12036133 99.14526367 C45.12036133 146.99526367 45.12036133 194.84526367 45.12036133 244.14526367 C16.41036133 244.14526367 -12.29963867 244.14526367 -41.87963867 244.14526367 C-41.97003016 217.51071496 -42.04367384 190.87629099 -42.08688736 164.24162769 C-42.10748795 151.87391978 -42.13556073 139.50631414 -42.18139648 127.13867188 C-42.22134083 116.35551482 -42.24708967 105.57243186 -42.25599265 94.78920287 C-42.2611945 89.08274675 -42.27336865 83.37650254 -42.3025589 77.67011452 C-42.32984801 72.29145158 -42.33805646 66.91308648 -42.3320694 61.53436089 C-42.33316362 59.56764733 -42.34103657 57.60092309 -42.35646057 55.63426971 C-42.48700908 38.11923399 -40.06885816 23.64952951 -27.62963867 10.33276367 C-19.4585112 2.53430587 -11.08133291 -0.00690827 0 0 Z " fill="#651EC5" transform="translate(385.879638671875,475.854736328125)"/>
<path d="M0 0 C1.7412356 2.4341763 3.25926678 4.79452193 4.75 7.375 C8.1751277 13.19997047 11.89275842 18.66379465 15.90332031 24.10400391 C20.13353051 29.94689554 24.03527895 36.01454497 28 42.0390625 C31.87391547 47.89533315 35.8657309 53.62984427 40.02197266 59.2890625 C43.31860382 63.80718055 46.50060672 68.40413095 49.6875 73 C50.38101563 73.99837891 51.07453125 74.99675781 51.7890625 76.02539062 C56.5767148 82.92575922 61.3283929 89.84999634 66.06079102 96.78833008 C71.05821113 104.10655733 76.12220795 111.37784851 81.18823242 118.64868164 C86.82623206 126.74261 92.42280854 134.86410443 98 143 C99.9574602 145.85476681 101.91599176 148.70879534 103.875 151.5625 C104.31561768 152.20566162 104.75623535 152.84882324 105.21020508 153.51147461 C105.63325928 154.12772705 106.05631348 154.74397949 106.4921875 155.37890625 C106.90178711 155.97590332 107.31138672 156.57290039 107.73339844 157.18798828 C109.06616628 159.09465809 110.44283971 160.96529978 111.8203125 162.83984375 C114 166 114 166 114 168 C104.98457905 168.06996611 95.96925368 168.1230452 86.953619 168.15543652 C82.76585575 168.17099429 78.57828025 168.19204815 74.390625 168.22631836 C70.33813292 168.25926931 66.28581975 168.27692704 62.23320389 168.28463173 C60.69848444 168.29011193 59.16377313 168.30081018 57.62913132 168.31719017 C36.55424401 168.53288288 17.61292287 163.65595114 1.77734375 148.93359375 C-4.57556956 142.30396552 -9.50148283 134.60862003 -14.6015625 127.01171875 C-17.83953551 122.20125512 -21.20833886 117.4971164 -24.625 112.8125 C-29.15255655 106.59191947 -33.57483546 100.31289234 -37.91333008 93.95922852 C-41.1709675 89.19245629 -44.47655482 84.46227587 -47.8125 79.75 C-53.37078194 71.89769475 -58.89387441 64.02130724 -64.40625 56.13671875 C-66.83922148 52.6569573 -69.27712044 49.18072279 -71.71875 45.70703125 C-81.88780699 31.2296685 -81.88780699 31.2296685 -86.5 24.25 C-87.11101562 23.33605469 -87.72203125 22.42210937 -88.3515625 21.48046875 C-89.40744301 19.89164382 -90.44572374 18.29089405 -91.4609375 16.67578125 C-94.79594075 11.69170181 -98.24689112 9.4168804 -103.73046875 7.0078125 C-106 6 -106 6 -109 4 C-108.12701263 3.99635437 -107.25402527 3.99270874 -106.35458374 3.98895264 C-97.97551573 3.95049379 -89.59681441 3.89301721 -81.21800804 3.81609726 C-76.91420727 3.77720637 -72.61059328 3.74474181 -68.30664062 3.72900391 C-47.41449277 3.64751119 -27.2088494 2.75952227 -6.5831604 -0.75823975 C-3.99445883 -1.0005186 -2.39354027 -0.9966338 0 0 Z " fill="#7128CA" transform="translate(580,552)"/>
<path d="M0 0 C1.74177007 2.43492347 3.25612614 4.79554859 4.75 7.375 C5.63083753 8.84311697 6.51497686 10.3092578 7.40234375 11.7734375 C8.05759033 12.8557666 8.05759033 12.8557666 8.72607422 13.95996094 C10.46082682 16.73795877 12.36102786 19.37088193 14.3125 22 C17.4486148 26.22610592 20.41369629 30.41139664 23 35 C22.67 35.66 22.34 36.32 22 37 C20.49373047 36.18595703 20.49373047 36.18595703 18.95703125 35.35546875 C7.9338198 29.53495297 -2.31720586 25.51220023 -15 26 C-15.33 25.67 -15.66 25.34 -16 25 C-23.17548434 25.12504195 -30.20092505 25.60773289 -37 28 C-37.83144531 28.24363281 -38.66289063 28.48726562 -39.51953125 28.73828125 C-45.77046006 30.63782722 -51.63624723 33.08406959 -57.5 35.9375 C-58.18247803 36.26121582 -58.86495605 36.58493164 -59.56811523 36.91845703 C-63.73604842 39.00734781 -66.31305323 41.05868777 -69 45 C-68.484375 45.598125 -67.96875 46.19625 -67.4375 46.8125 C-66.963125 47.534375 -66.48875 48.25625 -66 49 C-66.33 49.99 -66.66 50.98 -67 52 C-73.29725606 43.39216509 -79.56596903 34.78080438 -85.4375 25.875 C-86.24857048 24.65616519 -87.05976261 23.43741132 -87.87109375 22.21875 C-89.13108301 20.31373872 -90.37857879 18.40019791 -91.59765625 16.46875 C-94.87428895 11.57661872 -98.34558292 9.37352271 -103.73046875 7.0078125 C-106 6 -106 6 -109 4 C-108.12701263 3.99635437 -107.25402527 3.99270874 -106.35458374 3.98895264 C-97.97551573 3.95049379 -89.59681441 3.89301721 -81.21800804 3.81609726 C-76.91420727 3.77720637 -72.61059328 3.74474181 -68.30664062 3.72900391 C-47.41449277 3.64751119 -27.2088494 2.75952227 -6.5831604 -0.75823975 C-3.99445883 -1.0005186 -2.39354027 -0.9966338 0 0 Z " fill="#4F0786" transform="translate(580,552)"/>
<path d="M0 0 C0.70189453 0.00451172 1.40378906 0.00902344 2.12695312 0.01367188 C3.85550538 0.02543073 5.58401365 0.04336546 7.3125 0.0625 C5.27551255 1.6052524 3.23185208 3.1181889 1.12890625 4.5703125 C-4.57505453 8.66292908 -7.80289695 12.66998772 -10.6875 19.0625 C-11.3475 19.0625 -12.0075 19.0625 -12.6875 19.0625 C-12.79707031 19.63097656 -12.90664063 20.19945312 -13.01953125 20.78515625 C-13.7897958 24.53628198 -14.57447509 27.81761268 -16.1875 31.3125 C-20.6466279 41.16708869 -20.06601153 53.2824148 -20.3125 63.875 C-20.35081755 65.2610885 -20.3898764 66.64715672 -20.4296875 68.03320312 C-20.52286952 71.376108 -20.60621901 74.71928459 -20.6875 78.0625 C-16.3975 78.0625 -12.1075 78.0625 -7.6875 78.0625 C-7.6875 78.3925 -7.6875 78.7225 -7.6875 79.0625 C-18.5775 79.0625 -29.4675 79.0625 -40.6875 79.0625 C-40.78052542 74.36988443 -40.8597765 69.68060457 -40.90722656 64.98779297 C-40.92705268 63.39946519 -40.95412221 61.81120741 -40.98925781 60.22314453 C-41.39152449 41.54140694 -38.23386542 24.32657964 -25.04296875 10.140625 C-17.56074177 3.53938992 -9.90439166 -0.12022137 0 0 Z " fill="#4F088B" transform="translate(472.6875,475.9375)"/>
<path d="M0 0 C18.15180512 -0.04696942 36.3035942 -0.08210992 54.4554472 -0.10362434 C62.88592767 -0.11388468 71.31637012 -0.12784315 79.74682617 -0.15087891 C87.1050384 -0.17097503 94.46322306 -0.18375439 101.82146198 -0.18817699 C105.70829202 -0.19075728 109.59504328 -0.1967089 113.48184776 -0.21146011 C160.38893562 -0.38227893 205.80177689 4.97320986 241.0625 39.03125 C245.11976559 43.06776231 248.70327234 47.31963504 252 52 C252.65355469 52.92683594 253.30710937 53.85367188 253.98046875 54.80859375 C263.72069991 69.5979196 272.67025632 89.95893412 272 108 C268.73967376 104.43139076 267.9174575 100.4425151 266.8125 95.875 C259.60862989 68.29904616 243.91975723 43.40451262 219.13671875 28.64453125 C216.7642225 27.27213062 214.37357036 25.95918216 211.9609375 24.65625 C209 23 209 23 206.921875 21.40234375 C204.65824935 19.75063317 202.52525043 18.96265794 199.875 18.0625 C196.16871115 16.77785008 192.54730425 15.40902424 188.9375 13.875 C184.84604673 12.21244121 180.87030576 11.2185519 176.51953125 10.4921875 C174 10 174 10 171.05761719 9.06835938 C151.98591885 3.59830323 130.86123819 4.51425776 111.18689346 4.39035034 C107.56091921 4.36414995 103.93514488 4.3214121 100.30932617 4.27929688 C98.84474225 4.26247449 97.3801579 4.24568975 95.91557312 4.22894287 C95.19330725 4.2206823 94.47104137 4.21242172 93.72688866 4.20391083 C91.55876726 4.17981964 89.39063496 4.15750364 87.2224884 4.13580322 C75.08364556 4.01331564 62.94837968 3.79476257 50.8125 3.5 C49.94700531 3.47919373 49.08151062 3.45838745 48.18978882 3.43695068 C38.24901831 3.19450732 28.31036542 2.91305157 18.375 2.5 C17.51624268 2.46455078 16.65748535 2.42910156 15.77270508 2.39257812 C10.48197086 2.14449845 5.2591258 1.62983543 0 1 C0 0.67 0 0.34 0 0 Z " fill="#F9B1A5" transform="translate(399,285)"/>
<path d="M0 0 C18.69649514 -0.11604967 37.3230267 -0.01131077 56 1 C56 1.33 56 1.66 56 2 C55.0925 2.2475 54.185 2.495 53.25 2.75 C51.83230135 3.16314172 50.41578015 3.58033093 49 4 C48.15050781 4.24492188 47.30101562 4.48984375 46.42578125 4.7421875 C40.20065028 6.66153211 34.34770485 9.09187886 28.5 11.9375 C27.81752197 12.26121582 27.13504395 12.58493164 26.43188477 12.91845703 C22.26395158 15.00734781 19.68694677 17.05868777 17 21 C17.515625 21.598125 18.03125 22.19625 18.5625 22.8125 C19.036875 23.534375 19.51125 24.25625 20 25 C19.67 25.99 19.34 26.98 19 28 C16.95129787 25.21343717 14.91242521 22.41981589 12.875 19.625 C12.30523437 18.85027344 11.73546875 18.07554687 11.1484375 17.27734375 C7.0932511 11.70146245 3.45464101 5.96567511 0 0 Z " fill="#5511AD" transform="translate(494,576)"/>
<path d="M0 0 C4.28701766 4.04840814 7.77970831 8.47624392 11.3125 13.1875 C12.4722949 14.71121262 13.63244956 16.23465146 14.79296875 17.7578125 C16.62831011 20.17685958 18.44343134 22.60517157 20.23828125 25.0546875 C29.80352477 37.76873789 44.98686754 46.41117685 60.75927734 48.76367188 C66.90008851 49.41134078 73.10208752 49.50952764 79.2722168 49.62231445 C84.71093223 49.73873201 89.89931739 50.07897812 95.26171875 51.01953125 C103.12290257 52.33248977 110.87014598 52.22016102 118.8125 52.125 C120.29491574 52.11493652 121.77733819 52.1058167 123.25976562 52.09765625 C126.83998674 52.07594075 130.41994808 52.04160246 134 52 C134 52.66 134 53.32 134 54 C124.98457905 54.06996611 115.96925368 54.1230452 106.953619 54.15543652 C102.76585575 54.17099429 98.57828025 54.19204815 94.390625 54.22631836 C90.33813292 54.25926931 86.28581975 54.27692704 82.23320389 54.28463173 C80.69848444 54.29011193 79.16377313 54.30081018 77.62913132 54.31719017 C56.55424401 54.53288288 37.61292287 49.65595114 21.77734375 34.93359375 C14.06499905 26.88532115 8.09170351 17.29018453 2 8 C1.35804688 7.04738281 0.71609375 6.09476563 0.0546875 5.11328125 C-1 3 -1 3 0 0 Z " fill="#DB55EB" transform="translate(560,666)"/>
<path d="M0 0 C-0.61746094 0.47308594 -1.23492187 0.94617188 -1.87109375 1.43359375 C-16.88485802 13.15666996 -23.92225787 22.96878803 -27 42 C-27.40273854 47.10233761 -27.46462154 52.18937401 -27.4765625 57.3046875 C-27.49092845 58.72284373 -27.50669509 60.14098638 -27.52377319 61.55911255 C-27.56512362 65.248223 -27.59044758 68.93724914 -27.61126709 72.62652588 C-27.6474411 78.5492556 -27.70855204 84.47177686 -27.76975632 90.39429092 C-27.78861608 92.443677 -27.80050217 94.49300698 -27.81118774 96.54244995 C-27.95258308 113.8419403 -27.95258308 113.8419403 -30.54214478 116.70504761 C-31.023237 117.1323819 -31.50432922 117.55971619 -32 118 C-32.09311726 107.53312412 -32.16397523 97.06634852 -32.20724869 86.59914112 C-32.22802898 81.73757496 -32.25616966 76.87629442 -32.30175781 72.01489258 C-32.34555947 67.31400983 -32.36920878 62.61339996 -32.37950897 57.91232872 C-32.38683927 56.12836099 -32.40115171 54.34440639 -32.42292023 52.56055641 C-32.62310423 35.45952148 -29.81358308 21.1021295 -17.75 8.1875 C-13.18601574 3.83237604 -6.54595024 -2.18198341 0 0 Z " fill="#D753E9" transform="translate(376,478)"/>
<path d="M0 0 C0.66 0.33 1.32 0.66 2 1 C1.49210937 1.38929688 0.98421875 1.77859375 0.4609375 2.1796875 C-5.18323794 6.76690125 -8.71776169 11.53350065 -12 18 C-12.38027344 18.74765625 -12.76054687 19.4953125 -13.15234375 20.265625 C-19.40468041 34.13873427 -19.43516039 49.73338863 -19.34057617 64.64672852 C-19.33972757 66.55068956 -19.34020957 68.45465158 -19.34190369 70.35861206 C-19.34275598 75.47116719 -19.32525588 80.58350635 -19.30418181 85.69601178 C-19.28528573 91.0597758 -19.28365447 96.42354608 -19.28010559 101.78733826 C-19.2708228 111.91932752 -19.24626059 122.05121838 -19.21605712 132.18316454 C-19.18239511 143.72866982 -19.16599757 155.27418007 -19.15097082 166.81972229 C-19.11970724 190.54653585 -19.06702087 214.27326238 -19 238 C-19.33 238 -19.66 238 -20 238 C-20.33 193.45 -20.66 148.9 -21 103 C-21.33 103 -21.66 103 -22 103 C-22.82950211 90.53431949 -23.21453704 78.10549463 -23.24023438 65.61230469 C-23.25003873 62.73864832 -23.28125577 59.86568063 -23.3125 56.9921875 C-23.39947873 41.86715472 -21.6935991 28.80931706 -15 15 C-14.64292969 14.24847656 -14.28585937 13.49695313 -13.91796875 12.72265625 C-10.66971529 6.74265606 -5.69061844 3.53591826 0 0 Z " fill="#CA7EE7" transform="translate(451,482)"/>
<path d="M0 0 C2.0625 2.125 2.0625 2.125 4 5 C5.01900391 6.49853516 5.01900391 6.49853516 6.05859375 8.02734375 C6.69925781 9.00832031 7.33992187 9.98929688 8 11 C8.82177734 12.20849609 8.82177734 12.20849609 9.66015625 13.44140625 C10.85228896 15.24454848 11.93862755 17.11691985 13 19 C12.67 19.66 12.34 20.32 12 21 C10.99582031 20.45730469 9.99164062 19.91460938 8.95703125 19.35546875 C-2.0661802 13.53495297 -12.31720586 9.51220023 -25 10 C-25.33 9.67 -25.66 9.34 -26 9 C-27.85287502 8.92773498 -29.70833878 8.9161878 -31.5625 8.9375 C-32.57441406 8.94652344 -33.58632813 8.95554687 -34.62890625 8.96484375 C-35.41136719 8.97644531 -36.19382812 8.98804688 -37 9 C-33.95885106 7.3197974 -31.1518732 6.47617256 -27.75390625 5.78125 C-26.75166016 5.57113281 -25.74941406 5.36101563 -24.71679688 5.14453125 C-23.67587891 4.93183594 -22.63496094 4.71914063 -21.5625 4.5 C-19.50044385 4.07707984 -17.4392092 3.65013007 -15.37890625 3.21875 C-14.4669751 3.03248047 -13.55504395 2.84621094 -12.61547852 2.65429688 C-1.16753848 -0.20955819 -1.16753848 -0.20955819 0 0 Z " fill="#691193" transform="translate(590,568)"/>
<path d="M0 0 C28.05 0 56.1 0 85 0 C84.67 0.66 84.34 1.32 84 2 C95.22 2.33 106.44 2.66 118 3 C118 3.33 118 3.66 118 4 C84.77760616 4.16147877 51.5732818 3.8790827 18.375 2.5 C17.5180957 2.46463135 16.66119141 2.4292627 15.77832031 2.39282227 C10.48568721 2.14469616 5.26101444 1.63006161 0 1 C0 0.67 0 0.34 0 0 Z " fill="#F899A4" transform="translate(399,285)"/>
<path d="M0 0 C0.33 0 0.66 0 1 0 C1 21.45 1 42.9 1 65 C-27.71 65 -56.42 65 -86 65 C-86 63.02 -86 61.04 -86 59 C-85.34 59.99 -84.68 60.98 -84 62 C-81.28137045 62.31608118 -78.7853401 62.43739471 -76.06201172 62.43237305 C-75.24241974 62.4425647 -74.42282776 62.45275635 -73.57839966 62.46325684 C-70.86209391 62.49351594 -68.14614002 62.5026723 -65.4296875 62.51171875 C-63.54923315 62.52855589 -61.66879013 62.54670481 -59.7883606 62.56611633 C-54.83343035 62.61372734 -49.87854599 62.64346474 -44.92346191 62.66955566 C-38.98123233 62.70453375 -33.03917906 62.76157781 -27.09709167 62.81494904 C-18.06474967 62.89359299 -9.03264049 62.94410018 0 63 C0 42.21 0 21.42 0 0 Z " fill="#3D1AA5" transform="translate(430,655)"/>
<path d="M0 0 C0.33 0 0.66 0 1 0 C1.0232451 8.0760105 1.04097683 16.15200684 1.05181217 24.2280426 C1.05701449 27.97870064 1.06406361 31.72933567 1.07543945 35.47998047 C1.08636302 39.10449447 1.09229678 42.72898643 1.09487724 46.35351562 C1.09671451 47.73128608 1.10030201 49.10905542 1.10573006 50.48681641 C1.178356 69.69770652 1.178356 69.69770652 -1.54258728 72.70483398 C-2.02353348 73.13223877 -2.50447968 73.55964355 -3 74 C-3.02322164 66.67175434 -3.04096504 59.34351669 -3.05181217 52.01524162 C-3.05701956 48.61203583 -3.06407808 45.20885531 -3.07543945 41.80566406 C-3.08843353 37.888675 -3.09324595 33.971696 -3.09765625 30.0546875 C-3.10281754 28.83884979 -3.10797882 27.62301208 -3.11329651 26.37033081 C-3.11337204 25.22960114 -3.11344757 24.08887146 -3.11352539 22.91357422 C-3.115746 21.91429901 -3.11796661 20.9150238 -3.12025452 19.88546753 C-2.9939082 16.8538293 -2.55839423 13.97988879 -2 11 C-1.67 11 -1.34 11 -1 11 C-0.67 7.37 -0.34 3.74 0 0 Z " fill="#B546EB" transform="translate(347,522)"/>
<path d="M0 0 C0.33 0.66 0.66 1.32 1 2 C1.66 1.67 2.32 1.34 3 1 C5.40463414 0.9590788 7.77399564 0.97878723 10.17578125 1.05078125 C11.25728706 1.07908272 11.25728706 1.07908272 12.36064148 1.10795593 C13.89488249 1.14990545 15.4290492 1.19464947 16.96313477 1.24194336 C19.26499371 1.31107328 21.56687973 1.36610408 23.86914062 1.41992188 C30.52016362 1.60070591 36.98664234 1.8852505 43.5546875 3.03515625 C51.30764515 4.36630038 58.97406577 4.21891591 66.8125 4.125 C68.29491574 4.11493652 69.77733819 4.1058167 71.25976562 4.09765625 C74.83998674 4.07594075 78.41994808 4.04160246 82 4 C82 4.66 82 5.32 82 6 C72.98457905 6.06996611 63.96925368 6.1230452 54.953619 6.15543652 C50.76585575 6.17099429 46.57828025 6.19204815 42.390625 6.22631836 C38.33813292 6.25926931 34.28581975 6.27692704 30.23320389 6.28463173 C28.69848444 6.29011193 27.16377313 6.30081018 25.62913132 6.31719017 C15.63485212 6.41947747 6.72955018 5.54609042 -3 3 C-2.01 2.01 -1.02 1.02 0 0 Z " fill="#DB5BDE" transform="translate(612,714)"/>
<path d="M0 0 C0.33 0 0.66 0 1 0 C1.02505615 0.83660156 1.0501123 1.67320312 1.07592773 2.53515625 C1.17172836 5.67376726 1.27091655 8.81224881 1.37231445 11.95068359 C1.43632741 13.96313601 1.4965197 15.9757088 1.55664062 17.98828125 C1.7656066 24.38585504 2.03900084 30.66871141 3 37 C3.33 37 3.66 37 4 37 C4.02513051 41.03441396 4.04305855 45.06879625 4.05493164 49.10327148 C4.05989273 50.46949052 4.06666372 51.83570444 4.07543945 53.2019043 C4.13162733 62.18866001 3.84700523 71.05153774 3 80 C2.67 80 2.34 80 2 80 C1.22448825 69.48063516 0.72524443 58.98050898 0.4375 48.4375 C0.41632111 47.69462738 0.39514221 46.95175476 0.37332153 46.18637085 C-0.06003491 30.78919373 -0.11117789 15.40241423 0 0 Z " fill="#9432DB" transform="translate(427,538)"/>
<path d="M0 0 C0.66 0 1.32 0 2 0 C6.1168854 9.61056034 10.12802565 19.16614124 12.5 29.375 C12.65952148 30.0568335 12.81904297 30.73866699 12.98339844 31.44116211 C13.8277872 35.34962902 14.14834749 39.00698002 14 43 C10.75930678 39.44359454 9.91619723 35.48615925 8.8125 30.9375 C6.21107409 20.847184 2.24241496 11.49543002 -2 2 C-1.34 2 -0.68 2 0 2 C0 1.34 0 0.68 0 0 Z " fill="#F7A8AF" transform="translate(657,350)"/>
<path d="M0 0 C0.33 0 0.66 0 1 0 C1.02482932 5.97737327 1.04292109 11.95471611 1.05493164 17.93212891 C1.05994189 19.96305871 1.06675191 21.99398494 1.07543945 24.02490234 C1.08765047 26.95411057 1.09326153 29.88327085 1.09765625 32.8125 C1.10281754 33.71178223 1.10797882 34.61106445 1.11329651 35.53759766 C1.11452882 49.57340312 1.11452882 49.57340312 -1.5625 53 C-2.2740625 53.495 -2.2740625 53.495 -3 54 C-3.04939662 50.04903022 -3.08571755 46.0981797 -3.10986328 42.14697266 C-3.12488107 40.1408864 -3.15028981 38.13488676 -3.17578125 36.12890625 C-3.18544922 34.24365234 -3.18544922 34.24365234 -3.1953125 32.3203125 C-3.20578613 31.15773926 -3.21625977 29.99516602 -3.22705078 28.79736328 C-3 26 -3 26 -1 24 C-0.62864085 21.47962036 -0.62864085 21.47962036 -0.5859375 18.5546875 C-0.54726563 17.47832031 -0.50859375 16.40195312 -0.46875 15.29296875 C-0.4378125 14.16503906 -0.406875 13.03710938 -0.375 11.875 C-0.33632813 10.73933594 -0.29765625 9.60367188 -0.2578125 8.43359375 C-0.16332399 5.62256044 -0.07776459 2.81153767 0 0 Z " fill="#832BDC" transform="translate(347,542)"/>
<path d="M0 0 C0.99 0 1.98 0 3 0 C4.51464844 1.60131836 4.51464844 1.60131836 6.109375 3.83984375 C6.69976563 4.65646484 7.29015625 5.47308594 7.8984375 6.31445312 C8.50945313 7.18005859 9.12046875 8.04566406 9.75 8.9375 C10.95189221 10.61416564 12.15501533 12.28994962 13.359375 13.96484375 C13.95298828 14.7935498 14.54660156 15.62225586 15.15820312 16.47607422 C18.01370699 20.38914407 20.99662017 24.19981683 24 28 C23.34 29.32 22.68 30.64 22 32 C16.59045877 25.64256333 11.78240189 18.94003421 7.0625 12.0625 C6.48282471 11.22162842 5.90314941 10.38075684 5.3059082 9.5144043 C4.76281006 8.71687744 4.21971191 7.91935059 3.66015625 7.09765625 C3.17168213 6.38101807 2.68320801 5.66437988 2.17993164 4.92602539 C1 3 1 3 0 0 Z " fill="#A33CDD" transform="translate(537,637)"/>
<path d="M0 0 C29.04 0 58.08 0 88 0 C84.66189518 1.66905241 81.53842155 2.8741386 78 4 C77.01 3.01 77.01 3.01 76 2 C72.81424425 1.71975744 72.81424425 1.71975744 69.01171875 1.8046875 C68.29287506 1.80760803 67.57403137 1.81052856 66.83340454 1.8135376 C65.27063256 1.8211561 63.70787793 1.83339616 62.14517212 1.84967041 C59.67446444 1.87513435 57.20397071 1.88821195 54.7331543 1.89794922 C49.48867377 1.92084055 44.24436883 1.95932558 39 2 C32.92446145 2.04712083 26.84902389 2.08793374 20.77334595 2.11187744 C18.33468232 2.12488171 15.89632528 2.14989743 13.45776367 2.17529297 C11.96793896 2.18255586 10.47811137 2.18925959 8.98828125 2.1953125 C7.03208862 2.21102295 7.03208862 2.21102295 5.03637695 2.22705078 C2 2 2 2 0 0 Z " fill="#D059E3" transform="translate(381,475)"/>
<path d="M0 0 C5.3710904 -0.02491229 10.74214639 -0.0429596 16.11328125 -0.05493164 C17.93652941 -0.05992817 19.75977362 -0.06672764 21.58300781 -0.07543945 C24.219411 -0.08771187 26.85576074 -0.09327525 29.4921875 -0.09765625 C30.69438431 -0.10539818 30.69438431 -0.10539818 31.92086792 -0.11329651 C37.66561269 -0.11385276 43.29495059 0.33716508 49 1 C49 1.66 49 2.32 49 3 C39.32020701 3.1169371 29.67249701 2.97487812 20 2.5625 C19.04601318 2.52326416 18.09202637 2.48402832 17.10913086 2.44360352 C11.36791611 2.18247974 5.70508383 1.69559936 0 1 C0 0.67 0 0.34 0 0 Z " fill="#F5809E" transform="translate(399,285)"/>
<path d="M0 0 C3.7520541 3.63014621 7.13638119 7.40661376 10.375 11.5 C10.83777344 12.05558594 11.30054688 12.61117187 11.77734375 13.18359375 C13.93583613 15.9219796 15.04685577 17.35443155 14.7890625 20.90625 C14.52867187 21.5971875 14.26828125 22.288125 14 23 C10.07322165 19.26459894 6.79862998 15.32567166 3.625 10.9375 C3.16222656 10.32583984 2.69945312 9.71417969 2.22265625 9.08398438 C0.9140625 7.27734375 0.9140625 7.27734375 -1 4 C-0.61962891 1.79516602 -0.61962891 1.79516602 0 0 Z " fill="#C853EB" transform="translate(560,666)"/>
<path d="M0 0 C0.33 0 0.66 0 1 0 C1.11926151 8.123034 0.96684756 16.20022915 0.5625 24.3125 C0.52326416 25.15466064 0.48402832 25.99682129 0.44360352 26.86450195 C0.12133911 32.87866089 0.12133911 32.87866089 -1 34 C-1.23075082 35.34747084 -1.41153063 36.70377565 -1.5625 38.0625 C-1.7790625 40.0115625 -1.7790625 40.0115625 -2 42 C-2.33 42 -2.66 42 -3 42 C-3 32.76 -3 23.52 -3 14 C-2.34 13.67 -1.68 13.34 -1 13 C-0.53045739 9.95418731 -0.53045739 9.95418731 -0.375 6.4375 C-0.30023438 5.23996094 -0.22546875 4.04242187 -0.1484375 2.80859375 C-0.09945313 1.88175781 -0.05046875 0.95492187 0 0 Z " fill="#5C1BC8" transform="translate(347,598)"/>
<path d="M0 0 C0.66 0.33 1.32 0.66 2 1 C1.7834375 2.299375 1.7834375 2.299375 1.5625 3.625 C0.80298157 8.68151995 0.68465198 13.78695682 0.4765625 18.890625 C-0.01821818 22.11886617 -0.42444912 23.09932609 -3 25 C-3.02720824 22.31243045 -3.0469388 19.62514202 -3.0625 16.9375 C-3.07087891 16.18533203 -3.07925781 15.43316406 -3.08789062 14.65820312 C-3.10804678 10.00213182 -2.94473102 5.56917078 -2 1 C-1.34 0.67 -0.68 0.34 0 0 Z " fill="#CC53EE" transform="translate(347,514)"/>
<path d="M0 0 C0.33 0 0.66 0 1 0 C2.19128999 4.70797805 2.18362934 9.3021537 2.1875 14.125 C2.19974609 14.93582031 2.21199219 15.74664063 2.22460938 16.58203125 C2.22654297 17.36191406 2.22847656 18.14179687 2.23046875 18.9453125 C2.23457764 19.65187988 2.23868652 20.35844727 2.24291992 21.08642578 C2 23 2 23 0 26 C-1.53231162 22.93537675 -1.14622239 19.73420077 -1.125 16.375 C-1.12306641 15.653125 -1.12113281 14.93125 -1.11914062 14.1875 C-1.08012086 9.38373304 -0.79092426 4.74554554 0 0 Z " fill="#6E21D4" transform="translate(345,588)"/>
<path d="M0 0 C0.66 0 1.32 0 2 0 C1.67 10.23 1.34 20.46 1 31 C-1.02492589 26.95014822 -1.24741128 25.33584541 -1.23046875 20.95703125 C-1.22853516 19.80138672 -1.22660156 18.64574219 -1.22460938 17.45507812 C-1.21236328 16.25302734 -1.20011719 15.05097656 -1.1875 13.8125 C-1.18685547 12.59884766 -1.18621094 11.38519531 -1.18554688 10.13476562 C-1.14024712 1.14024712 -1.14024712 1.14024712 0 0 Z " fill="#E254F0" transform="translate(430,524)"/>
<path d="M0 0 C0.33 0 0.66 0 1 0 C1.10194194 10.72655709 1.07419152 21.31563078 0 32 C-0.33 32 -0.66 32 -1 32 C-1.61703628 24.231954 -2.11102743 16.48101121 -2.1875 8.6875 C-2.20167969 7.45386719 -2.21585937 6.22023438 -2.23046875 4.94921875 C-2 2 -2 2 0 0 Z " fill="#852AD5" transform="translate(430,586)"/>
<path d="M0 0 C0.99 0 1.98 0 3 0 C3.18451025 19.96810934 3.18451025 19.96810934 2 29 C1.67 29 1.34 29 1 29 C-0.19148936 9.65957447 -0.19148936 9.65957447 0 0 Z " fill="#B93DE7" transform="translate(428,556)"/>
<path d="M0 0 C-0.6290625 0.4846875 -1.258125 0.969375 -1.90625 1.46875 C-7.6665606 5.97983662 -12.95521933 10.70157115 -18 16 C-18 15.01 -18 14.02 -18 13 C-16.66666667 11.66666667 -15.33333333 10.33333333 -14 9 C-13.5875 8.01 -13.175 7.02 -12.75 6 C-10.02114574 1.32196412 -5.36186385 -1.78728795 0 0 Z " fill="#CC4EE7" transform="translate(376,478)"/>
<path d="M0 0 C0.33 0 0.66 0 1 0 C2.29235715 4.91502758 2.11135517 9.77290102 2.0625 14.8125 C2.05798828 15.69615234 2.05347656 16.57980469 2.04882812 17.49023438 C2.03709866 19.66018559 2.01916495 21.83010172 2 24 C-1.14077024 20.60300903 -1.35708151 18.24381837 -1.25 13.6875 C-1.22421875 12.5428125 -1.1984375 11.398125 -1.171875 10.21875 C-0.98612287 6.74011918 -0.63665414 3.42201603 0 0 Z " fill="#A239E9" transform="translate(345,548)"/>
<path d="M0 0 C0.33 0 0.66 0 1 0 C1.98248524 4.0527516 2.08159574 7.83861737 2 12 C0.68 12 -0.64 12 -2 12 C-2 14.31 -2 16.62 -2 19 C-2.33 19 -2.66 19 -3 19 C-3.38614349 12.1781317 -2.00865708 6.50422293 0 0 Z " fill="#E16FEE" transform="translate(347,503)"/>
<path d="M0 0 C0.33 0.66 0.66 1.32 1 2 C-0.80251112 5.69989125 -2.75271413 7.59072339 -6 10 C-7.2516467 12.08334635 -7.2516467 12.08334635 -8 14 C-8.99 14 -9.98 14 -11 14 C-9.61085525 9.70281047 -7.61968015 7.29312243 -4.375 4.1875 C-3.55773437 3.39730469 -2.74046875 2.60710937 -1.8984375 1.79296875 C-0.95871094 0.90544922 -0.95871094 0.90544922 0 0 Z " fill="#E558E8" transform="translate(363,482)"/>
<path d="M0 0 C0.99 0 1.98 0 3 0 C4.859375 1.86328125 4.859375 1.86328125 6.75 4.3125 C7.38421875 5.11300781 8.0184375 5.91351562 8.671875 6.73828125 C9.11015625 7.48464844 9.5484375 8.23101563 10 9 C9.67 9.99 9.34 10.98 9 12 C8.34 12 7.68 12 7 12 C5.2734375 9.8828125 5.2734375 9.8828125 3.375 7.125 C2.74335937 6.22007812 2.11171875 5.31515625 1.4609375 4.3828125 C0 2 0 2 0 0 Z " fill="#9339D6" transform="translate(537,637)"/>
<path d="M0 0 C0.33 0 0.66 0 1 0 C1 1.65 1 3.3 1 5 C1.66 5 2.32 5 3 5 C3.04241723 7.33294775 3.04092937 9.66702567 3 12 C2.67 12.33 2.34 12.66 2 13 C1.76924918 14.34747084 1.58846937 15.70377565 1.4375 17.0625 C1.293125 18.361875 1.14875 19.66125 1 21 C0.67 21 0.34 21 0 21 C0 14.07 0 7.14 0 0 Z " fill="#5016BC" transform="translate(344,619)"/>
<path d="M0 0 C0.33 0 0.66 0 1 0 C1.95835169 4.79175844 2.31383984 9.13548248 2 14 C0.484375 16.2421875 0.484375 16.2421875 -1 18 C-1.02690844 15.37493198 -1.04679404 12.75013827 -1.0625 10.125 C-1.07087891 9.37863281 -1.07925781 8.63226562 -1.08789062 7.86328125 C-1.11328125 2.2265625 -1.11328125 2.2265625 0 0 Z " fill="#9032E2" transform="translate(345,566)"/>
<path d="M0 0 C2.64752004 2.57784846 4.94432065 4.91648098 7 8 C5.68 8.33 4.36 8.66 3 9 C0.9375 6.1875 0.9375 6.1875 -1 3 C-0.67 2.01 -0.34 1.02 0 0 Z " fill="#B749E6" transform="translate(560,666)"/>
<path d="M0 0 C4.875 4.75 4.875 4.75 6 7 C5.01 8.485 5.01 8.485 4 10 C0.38860104 6.12435233 0.38860104 6.12435233 -1 4 C-0.8125 1.625 -0.8125 1.625 0 0 Z " fill="#AC40E2" transform="translate(555,659)"/>
<path d="M0 0 C-0.99 3.96 -1.98 7.92 -3 12 C-3.33 12 -3.66 12 -4 12 C-4.33 8.7 -4.66 5.4 -5 2 C-2 0 -2 0 0 0 Z " fill="#D14CEA" transform="translate(353,501)"/>
<path d="M0 0 C4.95 0 9.9 0 15 0 C11.66189518 1.66905241 8.53842155 2.8741386 5 4 C4.34 3.34 3.68 2.68 3 2 C2.01 1.34 1.02 0.68 0 0 Z " fill="#DB45D8" transform="translate(454,475)"/>
<path d="M0 0 C0 3 0 3 -1.53125 4.82421875 C-2.1809375 5.43910156 -2.830625 6.05398438 -3.5 6.6875 C-4.1496875 7.31011719 -4.799375 7.93273437 -5.46875 8.57421875 C-5.9740625 9.04472656 -6.479375 9.51523437 -7 10 C-7.66 9.34 -8.32 8.68 -9 8 C-6.03 5.36 -3.06 2.72 0 0 Z " fill="#5D0D8F" transform="translate(453,482)"/>
<path d="M0 0 C1.60080151 4.00200378 0.29279692 7.04556236 -1 11 C-1.66 11 -2.32 11 -3 11 C-2.88590407 9.54077307 -2.75834456 8.08259402 -2.625 6.625 C-2.55539062 5.81289063 -2.48578125 5.00078125 -2.4140625 4.1640625 C-2 2 -2 2 0 0 Z " fill="#E350F2" transform="translate(434,506)"/>
<path d="M0 0 C0.33 0.66 0.66 1.32 1 2 C1.66 2 2.32 2 3 2 C4.8597711 4.59240819 6.57205423 7.14410847 8 10 C5.29561004 9.63594751 4.25593617 9.31857318 2.515625 7.15234375 C1.88914062 6.05599609 1.88914062 6.05599609 1.25 4.9375 C0.82203125 4.20402344 0.3940625 3.47054687 -0.046875 2.71484375 C-0.36140625 2.14894531 -0.6759375 1.58304688 -1 1 C-0.67 0.67 -0.34 0.34 0 0 Z " fill="#842FCE" transform="translate(531,627)"/>
<path d="M0 0 C0.99 0 1.98 0 3 0 C2.67 1.98 2.34 3.96 2 6 C0.68 6.33 -0.64 6.66 -2 7 C-1.34 4.69 -0.68 2.38 0 0 Z " fill="#D84AEF" transform="translate(434,501)"/>
<path d="M0 0 C2.97 0 5.94 0 9 0 C9 0.99 9 1.98 9 3 C5.26512223 2.5020163 3.18762365 2.12508244 0 0 Z " fill="#37126D" transform="translate(471,556)"/>
<path d="M0 0 C0.99 0.33 1.98 0.66 3 1 C3 1.99 3 2.98 3 4 C1.35 4.66 -0.3 5.32 -2 6 C-1.34 4.02 -0.68 2.04 0 0 Z " fill="#E558EC" transform="translate(350,497)"/>
</svg>
